<!-- Generated by IcoMoon.io -->
<svg version="1.1" xmlns="http://www.w3.org/2000/svg" width="59" height="60" viewBox="0 0 31 32">
<title>cap-icon</title>
<path fill="#ff6b09" d="M24.79 5.099h-10.278c-0.669 0-1.213 0.544-1.213 1.212v4.25l-7.636 3.202c-0.086 0.036-0.145 0.118-0.152 0.211s0.040 0.183 0.12 0.231l0.974 0.582v6.205c-0.498 0.113-0.872 0.559-0.872 1.091v0.598c0 0.137 0.111 0.248 0.249 0.248h1.744c0.137 0 0.249-0.111 0.249-0.248v-0.598c0-0.532-0.374-0.977-0.872-1.091v-5.908l0.77 0.46c-0.024 0.177-0.003-0.309-0.011 2.889 0 1.051 2.695 1.614 5.437 1.647v4.842c0 0.25 0.077 0.483 0.208 0.676 0.218 0.322 0.587 0.535 1.005 0.535h10.278c0.669 0 1.212-0.543 1.212-1.211-0 0.033-0.001-1.026 0-18.611 0-0.659-0.546-1.212-1.212-1.212zM7.477 22.084v0.35h-1.246v-0.35c0-0.344 0.279-0.624 0.622-0.624 0.344 0 0.625 0.28 0.625 0.624zM24.79 25.635h-10.278c-0.247 0-0.464-0.125-0.593-0.314-0.077-0.114-0.122-0.251-0.122-0.399v-1.679h11.707v1.679c0 0.389-0.325 0.712-0.713 0.712zM25.503 22.747h-11.707v-2.665c1.339-0.015 5.441-0.31 5.441-1.648-0.001-2.009 0.004-2.824-0.006-2.893l2.233-1.336c0.080-0.048 0.127-0.137 0.12-0.231s-0.065-0.175-0.152-0.211l-7.636-3.202v-2.075h11.707v14.261zM13.547 16.785c-1.379 0-4.035 0.178-5.189 0.931 0.007-2.302-0.080-2.152 0.204-2.347 0.717-0.527 2.767-0.895 4.985-0.895 0.968 0 5.192 0.266 5.192 1.159v2.084c-1.165-0.76-3.807-0.931-5.192-0.931zM13.796 6.311c0-0.394 0.321-0.714 0.715-0.714h10.278c0.395 0 0.714 0.325 0.714 0.714v1.679h-11.707v-1.679zM13.547 10.996l7.239 3.035-1.794 1.072c-0.954-0.945-4.108-1.128-5.445-1.128-1.339 0-4.494 0.184-5.445 1.128l-1.794-1.073 7.239-3.035zM8.359 18.434c0-0.402 1.782-1.152 5.189-1.152 3.409 0 5.192 0.75 5.192 1.152s-1.783 1.153-5.192 1.153c-3.407 0-5.189-0.75-5.189-1.153z"></path>
<path fill="#ff6b09" d="M19.65 23.618c-0.453 0-0.822 0.368-0.822 0.822s0.369 0.822 0.822 0.822c0.454 0 0.823-0.369 0.823-0.822s-0.369-0.822-0.823-0.822zM19.65 24.765c-0.179 0-0.325-0.146-0.325-0.325s0.146-0.325 0.325-0.325c0.179 0 0.325 0.146 0.325 0.325s-0.146 0.325-0.325 0.325z"></path>
<path fill="#ff6b09" d="M20.599 6.545h-1.897v0.497h1.897v-0.497z"></path>
<path fill="none" stroke="#ff6b09" stroke-width="1.0159" stroke-miterlimit="4" stroke-linecap="butt" stroke-linejoin="miter" d="M30.476 4.793v-4.192h-29.968v30.538h29.968v-4.192"></path>
</svg>
