<!-- Generated by IcoMoon.io -->
<svg version="1.1" xmlns="http://www.w3.org/2000/svg" width="59" height="60" viewBox="0 0 31 32">
<title>human-icon</title>
<path fill="#ff6b09" d="M7.16 26.219c2.22 0 15.063 0 17.28 0 0.086-1.975-0.056-5.251-1.267-6.81l-0.044-0.056-2.648-1.332c0.058-0.194 0.086-0.372 0.097-0.503 0.013-0.157-0.009-0.305-0.064-0.438-0.437-1.047-1.361-1.598-1.869-1.833 0.155-0.313 0.255-0.649 0.303-0.992 0.288-0.081 0.519-0.31 0.595-0.615l0.309-1.258c0.055-0.222 0.020-0.452-0.097-0.648-0.051-0.084-0.116-0.155-0.19-0.216 0.871-1.983-0.588-3.853-0.668-3.952-1.581-1.712-3.577-1.392-3.683-1.373-2.881 0.605-3.993 2.817-3.366 5.413-0.186 0.206-0.264 0.494-0.195 0.776l0.311 1.259c0.075 0.303 0.305 0.53 0.591 0.613 0.088 0.628 0.354 1.197 0.743 1.655v0.997c-4.135 2.122-1.515 0.768-4.828 2.448-0.007 0.031-1.555 1.68-1.325 6.567l0.014 0.299zM23.84 25.592h-2.844v-1.197l1.881-4.315c0.942 1.567 0.977 4.56 0.963 5.512zM19.958 17.464c-0.11 1.263-0.801 0.881-1.228 1.855-0.336-0.37-0.437-0.813-0.346-1.288 0.163-0.872-0.368-1.131-0.237-2.047l0.020-0.021v-0.003c0.011-0.013 0.116-0.138 0.146-0.177 1.125 0.492 1.667 1.406 1.645 1.681zM13.922 16.471c0.522 0.363 1.153 0.578 1.831 0.578 0.639 0 1.245-0.186 1.765-0.529 0.072 0.72 0.353 0.864 0.253 1.394-0.019 0.098-0.029 0.195-0.035 0.291l-1.937 2.187-2.476-2.797 0.598-0.313v-0.811zM13.143 13.794v-1.213c0-0.447 0-2.218 0-2.131 0.301-0.559 0.712-0.964 1.223-1.207 1.368 0.775 2.942 1.933 3.998 3.098-0.001 1.483 0.004 1.487-0.006 1.609l-0.001 0.008c-0.082 1.347-1.188 2.463-2.605 2.463-1.378 0-2.522-1.084-2.605-2.477-0.004-0.050-0.005-0.1-0.005-0.151zM12.758 17.898l3.043 3.437 2.043-2.307c0.047 0.135 0.112 0.262 0.187 0.385l-2.23 2.794-3.325-4.167 0.282-0.142zM18.987 13.29v-0.968c0.027-0.031 0.26-0.298 0.232-0.267 0.013 0.49 0.066-0.088-0.232 1.235zM15.33 6.809c0.124 0.008 1.784-0.253 3.096 1.167 0.052 0.065 1.12 1.444 0.691 2.953-0.147-0.671-0.403-1.532-0.807-1.942l-0.442 0.441c0.399 0.405 0.662 1.64 0.762 2.28-1.833-1.921-4.196-3.138-4.229-3.158-0.119 0.074-1.119 0.264-1.845 1.679l-0.035 0.068v1.039c-0.031 0-0.123 0.001-0.092 0.001-0.462-2.233 0.422-4.007 2.902-4.528zM12.363 11.982l0.157 0.638v0.671l-0.261-1.060c-0.038-0.158 0.078-0.218 0.104-0.249zM11.905 18.326l3.895 4.881 2.635-3.303c0.287 0.257 0.425 0.294 1.032 0.607l-0.205-0.697c-0.052-0.177 0.154-0.461 0.278-0.591 0.278-0.151 0.509-0.366 0.682-0.632l2.15 1.082-2.001 4.59v1.328h-9.146v-1.329l-2.002-4.589 2.68-1.348zM8.723 20.082l1.881 4.314v1.197h-2.844c-0.014-0.952 0.021-3.943 0.963-5.511z"></path>
<path fill="none" stroke="#ff6b09" stroke-width="1.0323" stroke-miterlimit="4" stroke-linecap="butt" stroke-linejoin="miter" d="M30.968 4.767v-4.25h-30.452v30.968h30.452v-4.25"></path>
</svg>
