<!-- Generated by IcoMoon.io -->
<svg version="1.1" xmlns="http://www.w3.org/2000/svg" width="27" height="32" viewBox="0 0 27 32">
<title>female</title>
<path fill="#ff6b09" d="M-0.1 31.063c3.357 0 22.778 0 26.131 0 0.129-2.986-0.084-7.941-1.916-10.299l-0.066-0.085-4.004-2.014c0.087-0.294 0.13-0.563 0.147-0.761 0.020-0.237-0.013-0.461-0.097-0.663-0.661-1.584-2.058-2.417-2.827-2.772 0.234-0.473 0.385-0.981 0.458-1.5 0.435-0.123 0.785-0.468 0.9-0.929l0.467-1.902c0.083-0.336 0.031-0.684-0.147-0.98-0.077-0.128-0.176-0.235-0.287-0.327 1.318-2.999-0.889-5.827-1.009-5.976-2.39-2.589-5.409-2.105-5.569-2.076-4.357 0.914-6.039 4.26-5.089 8.185-0.281 0.312-0.399 0.747-0.295 1.174l0.47 1.904c0.114 0.458 0.461 0.802 0.893 0.926 0.133 0.95 0.535 1.81 1.124 2.502v1.508c-6.253 3.209-2.291 1.162-7.302 3.702-0.010 0.047-2.351 2.541-2.003 9.931l0.021 0.451zM25.124 30.115h-4.301v-1.81l2.845-6.525c1.425 2.37 1.478 6.895 1.456 8.335zM19.254 17.824c-0.166 1.91-1.211 1.333-1.857 2.805-0.508-0.559-0.66-1.23-0.524-1.948 0.246-1.318-0.556-1.71-0.358-3.095l0.030-0.032v-0.004c0.017-0.019 0.175-0.208 0.221-0.268 1.702 0.743 2.521 2.126 2.488 2.542zM10.126 16.323c0.79 0.549 1.743 0.873 2.769 0.873 0.966 0 1.883-0.282 2.67-0.8 0.109 1.089 0.534 1.307 0.383 2.108-0.028 0.149-0.044 0.295-0.053 0.439l-2.929 3.308-3.744-4.23 0.904-0.473v-1.226zM8.948 12.275v-1.834c0-0.675 0-3.355 0-3.222 0.456-0.845 1.077-1.457 1.85-1.825 2.068 1.173 4.449 2.923 6.046 4.684-0.001 2.243 0.006 2.249-0.009 2.433l-0.001 0.012c-0.125 2.037-1.796 3.725-3.939 3.725-2.084 0-3.814-1.639-3.939-3.745-0.006-0.075-0.008-0.151-0.008-0.228zM8.365 18.479l4.601 5.197 3.089-3.489c0.071 0.204 0.17 0.396 0.283 0.582l-3.372 4.225-5.028-6.301 0.427-0.215zM17.786 11.512v-1.464c0.041-0.048 0.393-0.451 0.351-0.403 0.019 0.741 0.099-0.134-0.351 1.868zM12.255 1.711c0.187 0.012 2.698-0.383 4.682 1.764 0.078 0.098 1.693 2.184 1.044 4.465-0.222-1.015-0.609-2.316-1.221-2.937l-0.669 0.667c0.604 0.613 1.001 2.48 1.152 3.448-2.771-2.906-6.346-4.745-6.395-4.776-0.179 0.112-1.692 0.4-2.791 2.54l-0.052 0.102v1.571c-0.047 0-0.186 0.002-0.138 0.001-0.698-3.377 0.639-6.060 4.388-6.847zM7.769 9.533l0.238 0.965v1.014l-0.395-1.602c-0.058-0.239 0.119-0.329 0.157-0.377zM7.076 19.128l5.89 7.382 3.985-4.995c0.434 0.389 0.642 0.444 1.561 0.918l-0.31-1.054c-0.079-0.267 0.233-0.697 0.421-0.894 0.42-0.228 0.77-0.554 1.032-0.956l3.252 1.636-3.026 6.941v2.009h-13.83v-2.009l-3.027-6.94 4.052-2.038zM2.264 21.782l2.845 6.523v1.81h-4.301c-0.022-1.44 0.032-5.963 1.456-8.333z"></path>
</svg>
