<svg width="128" height="45" fill="none" xmlns="http://www.w3.org/2000/svg"><path d="M19.136 6.8V25h-5.148v-7.098h-7.02V25H1.82V6.8h5.148v6.838h7.02V6.8h5.148Zm18.841 11.18c0 .035-.026.442-.078 1.222H27.655c.208.728.607 1.291 1.196 1.69.607.381 1.36.572 2.262.572.676 0 1.257-.095 1.742-.286.503-.19 1.006-.503 1.508-.936l2.6 2.704c-1.37 1.525-3.371 2.288-6.006 2.288-1.646 0-3.094-.312-4.342-.936-1.248-.624-2.218-1.49-2.912-2.6-.676-1.11-1.014-2.366-1.014-3.77 0-1.387.33-2.626.988-3.718a7.057 7.057 0 0 1 2.782-2.6c1.179-.624 2.505-.936 3.978-.936 1.404 0 2.678.295 3.822.884a6.431 6.431 0 0 1 2.704 2.522c.676 1.092 1.014 2.392 1.014 3.9Zm-7.514-3.796c-.762 0-1.404.217-1.924.65-.502.433-.823 1.023-.962 1.768h5.772c-.138-.745-.468-1.335-.988-1.768-.502-.433-1.135-.65-1.898-.65Zm10.832-8.476h4.94V25h-4.94V5.708Zm9.19 0h4.94V25h-4.94V5.708Z" fill="#111518"/><path d="M6.504 37.4H7.8V43H6.504v-5.6ZM3.96 43H2.664v-5.6H3.96V43Zm2.64-2.296H3.864v-1.096H6.6v1.096Zm5.157-1.048h2.696v1.008h-2.696v-1.008Zm.096 2.304H14.9V43h-4.336v-5.6h4.232v1.04h-2.944v3.52Zm5.52 1.04v-5.6h1.295v4.544h2.808V43h-4.104Zm6.267 0v-5.6h1.296v4.544h2.808V43H23.64Zm6.268 0v-5.6h1.296V43h-1.296Zm5.905.096c-.448 0-.877-.059-1.288-.176-.41-.123-.741-.28-.992-.472l.44-.976a3.238 3.238 0 0 0 1.848.584c.256 0 .462-.024.616-.072a.751.751 0 0 0 .352-.216.477.477 0 0 0 .112-.312.412.412 0 0 0-.176-.352 1.34 1.34 0 0 0-.464-.216 6.994 6.994 0 0 0-.64-.16 9.03 9.03 0 0 1-.696-.192c-.229-.075-.44-.17-.632-.288a1.452 1.452 0 0 1-.472-.464c-.117-.192-.176-.437-.176-.736 0-.32.086-.61.256-.872.176-.267.438-.477.784-.632.352-.16.792-.24 1.32-.24.352 0 .699.043 1.04.128.342.08.643.203.904.368l-.4.984a3.275 3.275 0 0 0-.784-.328 2.787 2.787 0 0 0-.768-.112c-.25 0-.456.03-.616.088a.712.712 0 0 0-.344.232.511.511 0 0 0-.104.32c0 .144.059.261.176.352.118.085.272.155.464.208.192.053.403.107.632.16.235.053.467.115.696.184.235.07.448.163.64.28.192.117.347.272.464.464.123.192.184.435.184.728 0 .315-.088.603-.264.864-.176.261-.44.472-.792.632-.346.16-.786.24-1.32.24Zm8.542-5.696h1.296V43h-1.296v-5.6ZM41.81 43h-1.296v-5.6h1.296V43Zm2.64-2.296h-2.736v-1.096h2.736v1.096Z" fill="#FF6B09"/><path d="M53.313 39.656h2.697v1.008h-2.697v-1.008Zm.096 2.304h3.049V43H52.12v-5.6h4.232v1.04H53.41v3.52ZM58.93 43v-5.6H60l3.304 4.032h-.52V37.4h1.28V43H63l-3.312-4.032h.52V43h-1.28Zm10.605.096c-.443 0-.851-.07-1.224-.208a2.98 2.98 0 0 1-.968-.608 2.855 2.855 0 0 1-.64-.92 2.94 2.94 0 0 1-.224-1.16c0-.421.074-.808.224-1.16.154-.352.37-.659.648-.92.277-.261.602-.461.976-.6a3.397 3.397 0 0 1 1.232-.216c.496 0 .941.083 1.336.248.4.165.736.405 1.008.72l-.832.768a1.978 1.978 0 0 0-.664-.472 1.908 1.908 0 0 0-.784-.16c-.272 0-.52.043-.744.128a1.7 1.7 0 0 0-.584.368c-.16.16-.286.35-.376.568a1.988 1.988 0 0 0-.128.728c0 .261.042.501.128.72.09.219.216.41.376.576.165.16.357.283.576.368.224.085.469.128.736.128.256 0 .504-.04.744-.12.245-.085.482-.227.712-.424l.736.936a3.37 3.37 0 0 1-1.064.528c-.4.123-.8.184-1.2.184Zm1.08-.88v-2.104h1.184v2.272l-1.184-.168Zm3.828.784v-5.6h1.296v4.544h2.808V43H74.44Zm6.268 0v-5.6h1.296V43H80.71Zm5.905.096c-.448 0-.878-.059-1.288-.176-.411-.123-.742-.28-.992-.472l.44-.976a3.239 3.239 0 0 0 1.848.584c.256 0 .461-.024.616-.072a.75.75 0 0 0 .352-.216.477.477 0 0 0 .112-.312.411.411 0 0 0-.176-.352 1.34 1.34 0 0 0-.464-.216 6.986 6.986 0 0 0-.64-.16 9.056 9.056 0 0 1-.696-.192c-.23-.075-.44-.17-.632-.288a1.453 1.453 0 0 1-.472-.464c-.118-.192-.176-.437-.176-.736 0-.32.085-.61.256-.872.176-.267.437-.477.784-.632.352-.16.792-.24 1.32-.24.352 0 .698.043 1.04.128.341.08.642.203.904.368l-.4.984a3.272 3.272 0 0 0-.784-.328 2.786 2.786 0 0 0-.768-.112c-.251 0-.456.03-.616.088a.712.712 0 0 0-.344.232.512.512 0 0 0-.104.32c0 .144.058.261.176.352.117.085.272.155.464.208.192.053.402.107.632.16.234.053.466.115.696.184.234.07.448.163.64.28.192.117.346.272.464.464.122.192.184.435.184.728 0 .315-.088.603-.264.864-.176.261-.44.472-.792.632-.347.16-.787.24-1.32.24Zm8.541-5.696h1.296V43h-1.296v-5.6ZM92.612 43h-1.296v-5.6h1.296V43Zm2.64-2.296h-2.736v-1.096h2.736v1.096ZM104.432 21.022V25H89.82V6.8h14.274v3.978h-9.178v3.068h8.086v3.848h-8.086v3.328h9.516ZM125.645 6.8V25h-4.238l-8.034-9.698V25h-5.044V6.8h4.238l8.034 9.698V6.8h5.044Z" fill="#111518"/><path d="M82.54 15.556c-.266-.596-.633-1.182-1.169-1.86-1.352-1.7-1.765-5.49-1.77-5.527a.457.457 0 0 0-.316-.386.465.465 0 0 0-.485.132c-1.614 1.804-.935 4.59-.569 5.704.101.305.211.664.29 1.027.595 2.941-.555 4.273-.826 4.541-.261.073-.44.037-.605-.14-.568-.623-.756-2.664-.49-5.323a5.441 5.441 0 0 0-.037-1.482c-.56-3.268-2.616-5.365-3.14-6.1-1.439-2.127-1.585-5.668-1.59-5.7a.458.458 0 0 0-.715-.36c-2.402 1.633-2.195 5.564-1.86 7.76.077.509.228 1.027.49 1.682.93 2.34-.184 5.363-.193 5.39-.01.028-.018.05-.023.078-.142.745-.38 1.19-.646 1.19a.314.314 0 0 1-.087-.013c-.326-.068-.495-.413-.5-.713-.018-3.878-3.91-5.182-3.95-5.196a.456.456 0 0 0-.486.136.447.447 0 0 0-.065.5c.046.096.193.514.092 1.991a16.978 16.978 0 0 1-.72 3.9c-.925 3.019-.779 5.878-.77 6.014.712 7.741 11.846 9.098 18.453 4.736.724-.477 1.315-1.022 1.75-1.622 2.44-3.364 1.005-7.932-.063-10.36ZM65.604 22.95a.454.454 0 0 1-.43.477h-.028a.456.456 0 0 1-.458-.427c-.042-.664-.032-1.36.018-2.114a.463.463 0 0 1 .49-.422.458.458 0 0 1 .427.486c-.05.718-.06 1.373-.019 2Zm.225-4.027a.455.455 0 0 1-.454.4c-.018 0-.037 0-.06-.005a.459.459 0 0 1-.398-.504l.22-1.755a.463.463 0 0 1 .513-.395c.252.032.43.259.399.509l-.22 1.75ZM79.44 6.219a.455.455 0 0 1-.384-.518c.029-.185.194-1.13.644-1.606a.46.46 0 0 1 .648-.02c.184.171.194.459.02.642-.19.201-.352.777-.406 1.122a.458.458 0 0 1-.523.38ZM62.73 8.483c-.088-.338-.306-.896-.515-1.078a.452.452 0 0 1-.043-.641.46.46 0 0 1 .647-.042c.494.429.752 1.354.799 1.535a.454.454 0 0 1-.33.553.46.46 0 0 1-.558-.327Z" fill="#FF6B09"/></svg>