<!-- Generated by IcoMoon.io -->
<svg version="1.1" xmlns="http://www.w3.org/2000/svg" width="31" height="32" viewBox="0 0 31 32">
<title>tablet-human-icon</title>
<path fill="#ff6b09" d="M7.046 26.16c2.185 0 14.824 0 17.006 0 0.084-1.97-0.055-5.238-1.247-6.793l-0.043-0.056-2.606-1.329c0.057-0.194 0.084-0.371 0.096-0.502 0.013-0.157-0.008-0.304-0.063-0.437-0.43-1.045-1.339-1.594-1.84-1.829 0.152-0.312 0.251-0.647 0.298-0.989 0.283-0.081 0.511-0.309 0.586-0.613l0.304-1.255c0.054-0.221 0.020-0.451-0.096-0.646-0.050-0.084-0.114-0.155-0.187-0.216 0.858-1.978-0.579-3.843-0.657-3.941-1.555-1.708-3.52-1.389-3.624-1.37-2.836 0.603-3.93 2.81-3.312 5.399-0.183 0.206-0.26 0.493-0.192 0.774l0.306 1.256c0.074 0.302 0.3 0.529 0.581 0.611 0.087 0.627 0.348 1.194 0.732 1.65v0.995c-4.069 2.116-1.491 0.766-4.752 2.442-0.006 0.031-1.53 1.676-1.304 6.55l0.014 0.298zM23.461 25.534h-2.799v-1.194l1.851-4.304c0.927 1.563 0.962 4.548 0.948 5.498zM19.641 17.427c-0.108 1.26-0.788 0.879-1.208 1.85-0.33-0.369-0.43-0.811-0.341-1.285 0.16-0.87-0.362-1.128-0.233-2.041l0.020-0.021v-0.003c0.011-0.013 0.114-0.137 0.144-0.177 1.107 0.49 1.64 1.402 1.619 1.677zM13.701 16.437c0.514 0.362 1.135 0.576 1.802 0.576 0.629 0 1.226-0.186 1.737-0.528 0.071 0.718 0.347 0.862 0.249 1.391-0.018 0.098-0.028 0.195-0.034 0.29l-1.906 2.182-2.437-2.79 0.588-0.312v-0.809zM12.935 13.767v-1.21c0-0.445 0-2.213 0-2.125 0.297-0.557 0.701-0.961 1.204-1.204 1.346 0.774 2.895 1.928 3.935 3.090-0.001 1.48 0.004 1.484-0.006 1.605l-0.001 0.008c-0.081 1.344-1.169 2.457-2.564 2.457-1.356 0-2.482-1.081-2.563-2.47-0.004-0.050-0.005-0.1-0.005-0.151zM12.555 17.859l2.994 3.428 2.010-2.301c0.046 0.134 0.11 0.261 0.184 0.384l-2.194 2.787-3.272-4.156 0.278-0.142zM18.686 13.264v-0.966c0.027-0.031 0.256-0.297 0.229-0.266 0.013 0.489 0.065-0.088-0.229 1.232zM15.087 6.799c0.122 0.008 1.756-0.252 3.047 1.164 0.051 0.065 1.102 1.44 0.68 2.945-0.145-0.67-0.396-1.528-0.795-1.937l-0.435 0.44c0.393 0.404 0.651 1.636 0.75 2.274-1.803-1.917-4.13-3.13-4.162-3.15-0.117 0.074-1.101 0.264-1.816 1.675l-0.034 0.068v1.037c-0.031 0-0.121 0.001-0.090 0.001-0.454-2.227 0.416-3.997 2.855-4.516zM12.167 11.959l0.155 0.637v0.669l-0.257-1.057c-0.038-0.158 0.077-0.217 0.102-0.249zM11.716 18.287l3.833 4.869 2.594-3.294c0.282 0.256 0.418 0.293 1.016 0.605l-0.202-0.695c-0.051-0.176 0.151-0.459 0.274-0.59 0.273-0.151 0.501-0.365 0.671-0.63l2.116 1.079-1.969 4.578v1.325h-9v-1.325l-1.97-4.578 2.637-1.344zM8.584 20.038l1.851 4.303v1.194h-2.799c-0.014-0.95 0.021-3.933 0.947-5.497z"></path>
<path fill="none" stroke="#ff6b09" stroke-width="1.0159" stroke-miterlimit="4" stroke-linecap="butt" stroke-linejoin="miter" d="M30.387 4.771v-4.248h-29.879v30.951h29.879v-4.248"></path>
</svg>
