<!-- Generated by IcoMoon.io -->
<svg version="1.1" xmlns="http://www.w3.org/2000/svg" width="31" height="32" viewBox="0 0 31 32">
<title>tablet-cap-icon</title>
<path fill="#ff6b09" d="M24.717 5.091h-10.247c-0.667 0-1.21 0.55-1.21 1.227v4.303l-7.613 3.242c-0.086 0.037-0.145 0.119-0.151 0.214s0.040 0.185 0.12 0.234l0.971 0.589v6.282c-0.497 0.115-0.869 0.566-0.869 1.105v0.605c0 0.139 0.111 0.252 0.248 0.252h1.739c0.137 0 0.248-0.113 0.248-0.252v-0.605c0-0.539-0.373-0.989-0.87-1.104v-5.981l0.768 0.466c-0.024 0.18-0.003-0.313-0.011 2.925 0 1.064 2.687 1.634 5.421 1.667v4.902c0 0.253 0.076 0.489 0.207 0.684 0.217 0.326 0.585 0.541 1.002 0.541h10.247c0.666 0 1.209-0.55 1.209-1.226 0 0.034-0.001-1.038 0-18.843 0-0.668-0.544-1.227-1.208-1.227zM7.456 22.287v0.354h-1.243v-0.354c0-0.349 0.278-0.632 0.62-0.632 0.343 0 0.623 0.284 0.623 0.632zM24.717 25.883h-10.247c-0.246 0-0.463-0.126-0.592-0.318-0.077-0.115-0.122-0.254-0.122-0.404v-1.699h11.672v1.7c0 0.394-0.324 0.721-0.711 0.721zM25.428 22.958h-11.672v-2.698c1.335-0.015 5.424-0.314 5.424-1.669-0.001-2.034 0.004-2.859-0.006-2.928l2.226-1.353c0.080-0.049 0.126-0.139 0.12-0.234s-0.065-0.177-0.151-0.214l-7.613-3.242v-2.101h11.672v14.438zM13.508 16.922c-1.375 0-4.023 0.18-5.173 0.942 0.007-2.331-0.080-2.179 0.203-2.377 0.715-0.534 2.758-0.906 4.97-0.906 0.965 0 5.176 0.269 5.176 1.174v2.11c-1.161-0.769-3.795-0.943-5.176-0.943zM13.756 6.318c0-0.399 0.32-0.723 0.713-0.723h10.247c0.393 0 0.712 0.329 0.712 0.723v1.7h-11.672v-1.699zM13.508 11.061l7.217 3.073-1.788 1.086c-0.951-0.957-4.096-1.142-5.429-1.142-1.335 0-4.48 0.186-5.429 1.142l-1.789-1.086 7.218-3.073zM8.335 18.592c0-0.407 1.777-1.167 5.173-1.167 3.399 0 5.176 0.76 5.176 1.167s-1.778 1.167-5.176 1.167c-3.396 0-5.173-0.76-5.173-1.167z"></path>
<path fill="#ff6b09" d="M19.593 23.841c-0.452 0-0.82 0.373-0.82 0.832s0.368 0.832 0.82 0.832c0.452 0 0.82-0.373 0.82-0.832s-0.368-0.832-0.82-0.832zM19.593 25.002c-0.179 0-0.324-0.148-0.324-0.329s0.145-0.329 0.324-0.329c0.179 0 0.324 0.147 0.324 0.329s-0.145 0.329-0.324 0.329z"></path>
<path fill="#ff6b09" d="M20.539 6.555h-1.891v0.503h1.891v-0.503z"></path>
<path fill="none" stroke="#ff6b09" stroke-width="1.0159" stroke-miterlimit="4" stroke-linecap="butt" stroke-linejoin="miter" d="M30.387 4.781v-4.244h-29.879v30.918h29.879v-4.244"></path>
</svg>
