<!-- Generated by IcoMoon.io -->
<svg version="1.1" xmlns="http://www.w3.org/2000/svg" width="31" height="32" viewBox="0 0 31 32">
<title>tablet-umbrella-icon</title>
<path fill="#ff6b09" d="M6.947 14.542c0 0.23-0.344 0.23-0.344 0 0-4.888 3.907-8.852 8.725-8.852 4.82 0 8.725 3.964 8.725 8.852 0 0.23-0.342 0.23-0.342 0 0-3.304-5.351-3.306-5.351 0 0 0.23-0.352 0.23-0.352 0 0-3.295-5.36-3.295-5.36 0 0 0.23-0.352 0.23-0.352 0 0-3.289-5.349-3.312-5.349 0zM12.327 13.259c0.093-1.902 0.387-3.607 0.816-4.909 0.342-1.034 0.774-1.82 1.265-2.261-3.679 0.407-6.657 3.237-7.322 6.906 1.267-1.854 4.192-1.705 5.242 0.263zM17.981 13.173c-0.095-1.828-0.381-3.465-0.793-4.712-1.063-3.228-2.657-3.228-3.72 0-0.412 1.248-0.696 2.884-0.793 4.712 1.143-1.971 4.163-1.971 5.306 0zM23.571 12.996c-0.663-3.669-3.642-6.499-7.322-6.906 0.492 0.441 0.923 1.227 1.265 2.261 0.428 1.302 0.723 3.007 0.816 4.909 1.057-1.979 3.99-2.096 5.242-0.263z"></path>
<path fill="#ff6b09" d="M14.183 18.592v-1.797c-0.319 0.215-0.571 0.548-0.571 0.953 0 0.395 0.255 0.656 0.571 0.844zM14.527 19.15c-0.612-0.284-1.256-0.617-1.256-1.402 0-0.811 0.608-1.216 1.256-1.52v2.922z"></path>
<path fill="#ff6b09" d="M16.473 21.304v1.818c0.323-0.217 0.577-0.552 0.577-0.957 0-0.399-0.26-0.669-0.577-0.861zM16.131 20.744c0.614 0.288 1.263 0.631 1.263 1.421 0 0.813-0.612 1.218-1.263 1.519v-2.94z"></path>
<path fill="#ff6b09" d="M16.473 14.749c1.409 0.33 2.857 1.4 2.857 2.999 0 1.369-2.28 1.319-2.28 0 0-0.408-0.253-0.742-0.577-0.957v2.558c1.304 0.433 2.861 1.208 2.861 2.817 0 1.601-1.448 2.668-2.861 2.997-0.006 1.523-2.286 1.521-2.29-0.002-0.803-0.188-1.502-0.568-2.006-1.072-0.529-0.531-0.842-1.197-0.842-1.922 0-1.348 2.278-1.348 2.278 0 0 0.403 0.251 0.736 0.571 0.951v-2.556c-1.293-0.424-2.859-1.222-2.859-2.817 0-1.601 1.448-2.668 2.859-2.997 0.006-1.523 2.286-1.521 2.29 0.002zM14.527 14.753v0.278c-1.341 0.27-2.861 1.141-2.861 2.712 0 1.511 1.668 2.188 2.861 2.562v3.377c-0.645-0.299-1.256-0.702-1.256-1.517 0-0.89-1.594-0.89-1.594 0 0 0.629 0.276 1.21 0.742 1.674 0.591 0.593 1.308 0.876 2.109 1.037v0.28c0 1.072 1.605 1.072 1.605 0v-0.278c1.345-0.272 2.859-1.143 2.859-2.712 0-1.525-1.664-2.182-2.859-2.564v-3.375c0.647 0.299 1.263 0.702 1.263 1.521 0 0.867 1.592 0.903 1.592 0 0-1.569-1.512-2.443-2.855-2.714v-0.28c0-1.072-1.605-1.072-1.605 0z"></path>
<path fill="none" stroke="#ff6b09" stroke-width="1.0159" stroke-miterlimit="4" stroke-linecap="butt" stroke-linejoin="miter" d="M30.387 4.781v-4.244h-29.879v30.918h29.879v-4.244"></path>
</svg>
