<!-- Generated by IcoMoon.io -->
<svg version="1.1" xmlns="http://www.w3.org/2000/svg" width="31" height="32" viewBox="0 0 31 32">
<title>umbrella-icon</title>
<path fill="#ff6b09" d="M7.059 14.761c0 0.231-0.35 0.231-0.35 0 0-4.905 3.97-8.884 8.866-8.884 4.898 0 8.866 3.978 8.866 8.884 0 0.231-0.347 0.231-0.347 0 0-3.316-5.438-3.318-5.438 0 0 0.231-0.358 0.231-0.358 0 0-3.307-5.446-3.307-5.446 0 0 0.231-0.358 0.231-0.358 0 0-3.301-5.435-3.324-5.435 0zM12.526 13.474c0.094-1.909 0.393-3.62 0.829-4.926 0.347-1.038 0.787-1.827 1.285-2.269-3.738 0.409-6.765 3.249-7.441 6.931 1.287-1.86 4.259-1.711 5.327 0.264zM18.271 13.388c-0.096-1.835-0.387-3.477-0.806-4.729-1.080-3.24-2.7-3.24-3.78 0-0.419 1.252-0.707 2.894-0.806 4.729 1.162-1.978 4.23-1.978 5.391 0zM23.952 13.21c-0.674-3.683-3.7-6.522-7.441-6.931 0.5 0.443 0.938 1.231 1.285 2.269 0.435 1.307 0.735 3.018 0.829 4.926 1.074-1.986 4.054-2.104 5.327-0.264z"></path>
<path fill="#ff6b09" d="M14.412 18.827v-1.804c-0.324 0.216-0.58 0.55-0.58 0.957 0 0.396 0.259 0.659 0.58 0.847zM14.762 19.387c-0.622-0.285-1.277-0.619-1.277-1.408 0-0.814 0.617-1.221 1.277-1.525v2.933z"></path>
<path fill="#ff6b09" d="M16.739 21.548v1.825c0.329-0.218 0.586-0.554 0.586-0.961 0-0.401-0.264-0.671-0.586-0.864zM16.392 20.986c0.624 0.289 1.283 0.633 1.283 1.426 0 0.816-0.622 1.223-1.283 1.525v-2.951z"></path>
<path fill="#ff6b09" d="M16.739 14.969c1.432 0.331 2.903 1.405 2.903 3.010 0 1.374-2.317 1.323-2.317 0 0-0.409-0.257-0.745-0.586-0.961v2.567c1.325 0.434 2.907 1.212 2.907 2.827 0 1.607-1.471 2.678-2.907 3.008-0.006 1.529-2.323 1.527-2.327-0.002-0.816-0.189-1.526-0.57-2.039-1.076-0.538-0.533-0.856-1.202-0.856-1.93 0-1.353 2.315-1.353 2.315 0 0 0.405 0.255 0.738 0.58 0.954v-2.565c-1.314-0.426-2.905-1.227-2.905-2.827 0-1.607 1.471-2.678 2.905-3.008 0.006-1.529 2.323-1.527 2.327 0.002zM14.761 14.973v0.279c-1.363 0.271-2.907 1.145-2.907 2.722 0 1.516 1.695 2.196 2.907 2.571v3.389c-0.655-0.3-1.277-0.705-1.277-1.523 0-0.893-1.62-0.893-1.62 0 0 0.631 0.28 1.214 0.753 1.68 0.601 0.596 1.329 0.879 2.143 1.040v0.281c0 1.076 1.63 1.076 1.63 0v-0.279c1.367-0.273 2.905-1.147 2.905-2.722 0-1.531-1.691-2.19-2.905-2.573v-3.387c0.657 0.3 1.283 0.705 1.283 1.527 0 0.87 1.618 0.906 1.618 0 0-1.575-1.536-2.452-2.901-2.724v-0.281c0-1.076-1.63-1.076-1.63 0z"></path>
<path fill="none" stroke="#ff6b09" stroke-width="1.0323" stroke-miterlimit="4" stroke-linecap="butt" stroke-linejoin="miter" d="M30.968 4.767v-4.25h-30.452v30.968h30.452v-4.25"></path>
</svg>
